<?xml version="1.0" standalone="no"?>
<!DOCTYPE svg PUBLIC "-//W3C//DTD SVG 20010904//EN"
 "http://www.w3.org/TR/2001/REC-SVG-20010904/DTD/svg10.dtd">
<svg version="1.0" xmlns="http://www.w3.org/2000/svg"
 width="512.000000pt" height="512.000000pt" viewBox="0 0 512.000000 512.000000"
 preserveAspectRatio="xMidYMid meet">
<metadata>
Created by potrace 1.11, written by Peter Selinger 2001-2013
</metadata>
<g transform="translate(0.000000,512.000000) scale(0.100000,-0.100000)"
fill="#000000" stroke="none">
<path d="M1778 5075 c-2 -2 -80 -6 -173 -10 -94 -3 -183 -8 -200 -10 -104 -11
-152 -17 -165 -20 -8 -3 -33 -7 -55 -10 -22 -3 -54 -11 -72 -16 -17 -6 -44
-12 -59 -15 -48 -9 -217 -75 -284 -111 -339 -184 -568 -489 -658 -878 -58
-246 -67 -453 -67 -1455 0 -858 7 -1088 36 -1270 6 -36 13 -78 16 -95 25 -163
109 -373 209 -521 230 -343 597 -545 1069 -589 39 -4 86 -8 105 -11 197 -23
1915 -22 2175 1 156 14 233 26 345 51 159 36 333 109 450 187 220 148 402 376
494 620 39 105 78 261 91 362 31 262 38 505 38 1285 0 673 -9 1064 -28 1205
-3 22 -8 58 -11 80 -3 22 -9 56 -14 75 -5 19 -11 51 -14 71 -8 54 -64 214
-104 299 -176 374 -556 655 -977 724 -155 26 -225 33 -390 43 -109 6 -1751 13
-1757 8z"/>
</g>
</svg>
