<?xml version="1.0" standalone="no"?>
<!DOCTYPE svg PUBLIC "-//W3C//DTD SVG 20010904//EN"
 "http://www.w3.org/TR/2001/REC-SVG-20010904/DTD/svg10.dtd">
<svg version="1.0" xmlns="http://www.w3.org/2000/svg"
 width="260.000000pt" height="260.000000pt" viewBox="0 0 260.000000 260.000000"
 preserveAspectRatio="xMidYMid meet">
<metadata>
Created by potrace 1.11, written by Peter Selinger 2001-2013
</metadata>
<g transform="translate(0.000000,260.000000) scale(0.100000,-0.100000)"
fill="#000000" stroke="none">
<path d="M1120 2493 c-124 -43 -186 -129 -189 -264 -1 -23 -9 -29 -60 -48 -81
-29 -152 -95 -193 -179 l-33 -67 0 -395 0 -395 26 -55 c36 -74 86 -130 149
-164 56 -30 138 -53 183 -51 15 1 27 -2 27 -6 0 -4 -11 -50 -26 -101 -14 -51
-27 -100 -29 -109 -2 -9 -18 -69 -35 -135 -48 -177 -49 -178 -34 -212 33 -80
138 -72 169 12 12 33 111 396 128 471 5 21 8 -152 8 -433 -1 -203 7 -233 63
-252 49 -16 101 8 115 53 5 18 9 167 9 332 0 165 1 305 2 310 1 6 6 -6 10 -25
4 -19 21 -84 38 -145 16 -60 41 -154 56 -207 32 -124 48 -153 87 -167 43 -15
98 11 115 54 12 31 8 53 -41 230 -10 33 -19 67 -20 75 -2 8 -18 65 -34 125
-36 128 -36 134 -15 131 39 -6 132 17 187 46 68 37 118 91 155 168 l27 55 0
395 0 395 -33 67 c-39 81 -111 149 -185 176 l-52 20 -5 58 c-9 111 -82 207
-178 234 -37 10 -364 13 -392 3z m376 -140 c38 -27 57 -69 52 -114 l-3 -34
-233 0 c-129 0 -236 4 -239 8 -9 16 8 95 25 114 38 44 69 51 222 49 132 -1
148 -3 176 -23z"/>
</g>
</svg>
